<mxfile host="app.diagrams.net" agent="Mozilla/5.0 (Windows NT 10.0; Win64; x64) AppleWebKit/537.36 (KHTML, like Gecko) Chrome/138.0.0.0 Safari/537.36" version="28.1.0">
  <diagram id="BtiC4wk0ZQQSJnXzYJDk" name="Página-1">
    <mxGraphModel dx="1097" dy="693" grid="1" gridSize="10" guides="1" tooltips="1" connect="1" arrows="1" fold="1" page="1" pageScale="1" pageWidth="850" pageHeight="1100" math="0" shadow="0">
      <root>
        <mxCell id="0" />
        <mxCell id="1" parent="0" />
        <mxCell id="W_ts69IYHslcQruZLMYk-1" value="MER (Modelo Entidad Relación)" style="text;html=1;align=center;verticalAlign=middle;whiteSpace=wrap;rounded=0;fillColor=#dae8fc;strokeColor=#6c8ebf;" vertex="1" parent="1">
          <mxGeometry x="40" y="30" width="180" height="50" as="geometry" />
        </mxCell>
        <mxCell id="W_ts69IYHslcQruZLMYk-5" value="" style="edgeStyle=orthogonalEdgeStyle;rounded=0;orthogonalLoop=1;jettySize=auto;html=1;" edge="1" parent="1" source="W_ts69IYHslcQruZLMYk-2" target="W_ts69IYHslcQruZLMYk-4">
          <mxGeometry relative="1" as="geometry" />
        </mxCell>
        <mxCell id="W_ts69IYHslcQruZLMYk-9" style="edgeStyle=orthogonalEdgeStyle;rounded=0;orthogonalLoop=1;jettySize=auto;html=1;" edge="1" parent="1" source="W_ts69IYHslcQruZLMYk-2" target="W_ts69IYHslcQruZLMYk-8">
          <mxGeometry relative="1" as="geometry" />
        </mxCell>
        <mxCell id="W_ts69IYHslcQruZLMYk-10" style="edgeStyle=orthogonalEdgeStyle;rounded=0;orthogonalLoop=1;jettySize=auto;html=1;" edge="1" parent="1" source="W_ts69IYHslcQruZLMYk-2" target="W_ts69IYHslcQruZLMYk-7">
          <mxGeometry relative="1" as="geometry" />
        </mxCell>
        <mxCell id="W_ts69IYHslcQruZLMYk-11" style="edgeStyle=orthogonalEdgeStyle;rounded=0;orthogonalLoop=1;jettySize=auto;html=1;" edge="1" parent="1" source="W_ts69IYHslcQruZLMYk-2" target="W_ts69IYHslcQruZLMYk-6">
          <mxGeometry relative="1" as="geometry" />
        </mxCell>
        <mxCell id="W_ts69IYHslcQruZLMYk-34" style="edgeStyle=orthogonalEdgeStyle;rounded=0;orthogonalLoop=1;jettySize=auto;html=1;flowAnimation=1;" edge="1" parent="1" source="W_ts69IYHslcQruZLMYk-2" target="W_ts69IYHslcQruZLMYk-32">
          <mxGeometry relative="1" as="geometry" />
        </mxCell>
        <mxCell id="W_ts69IYHslcQruZLMYk-2" value="Persona" style="rounded=1;whiteSpace=wrap;html=1;fillColor=#dae8fc;strokeColor=#6c8ebf;" vertex="1" parent="1">
          <mxGeometry x="120" y="170" width="100" height="40" as="geometry" />
        </mxCell>
        <mxCell id="W_ts69IYHslcQruZLMYk-4" value="nombre" style="ellipse;whiteSpace=wrap;html=1;rounded=1;fillColor=#d5e8d4;strokeColor=#82b366;" vertex="1" parent="1">
          <mxGeometry x="10" y="120" width="70" height="50" as="geometry" />
        </mxCell>
        <mxCell id="W_ts69IYHslcQruZLMYk-6" value="documento" style="ellipse;whiteSpace=wrap;html=1;rounded=1;fillColor=#d5e8d4;strokeColor=#82b366;" vertex="1" parent="1">
          <mxGeometry x="80" y="260" width="70" height="50" as="geometry" />
        </mxCell>
        <mxCell id="W_ts69IYHslcQruZLMYk-7" value="apellido" style="ellipse;whiteSpace=wrap;html=1;rounded=1;fillColor=#d5e8d4;strokeColor=#82b366;" vertex="1" parent="1">
          <mxGeometry x="170" y="260" width="70" height="50" as="geometry" />
        </mxCell>
        <mxCell id="W_ts69IYHslcQruZLMYk-8" value="edad" style="ellipse;whiteSpace=wrap;html=1;rounded=1;fillColor=#d5e8d4;strokeColor=#82b366;" vertex="1" parent="1">
          <mxGeometry x="20" y="300" width="70" height="50" as="geometry" />
        </mxCell>
        <mxCell id="W_ts69IYHslcQruZLMYk-17" style="edgeStyle=orthogonalEdgeStyle;rounded=0;orthogonalLoop=1;jettySize=auto;html=1;" edge="1" parent="1" source="W_ts69IYHslcQruZLMYk-12" target="W_ts69IYHslcQruZLMYk-13">
          <mxGeometry relative="1" as="geometry" />
        </mxCell>
        <mxCell id="W_ts69IYHslcQruZLMYk-18" style="edgeStyle=orthogonalEdgeStyle;rounded=0;orthogonalLoop=1;jettySize=auto;html=1;" edge="1" parent="1" source="W_ts69IYHslcQruZLMYk-12" target="W_ts69IYHslcQruZLMYk-14">
          <mxGeometry relative="1" as="geometry" />
        </mxCell>
        <mxCell id="W_ts69IYHslcQruZLMYk-19" style="edgeStyle=orthogonalEdgeStyle;rounded=0;orthogonalLoop=1;jettySize=auto;html=1;" edge="1" parent="1" source="W_ts69IYHslcQruZLMYk-12" target="W_ts69IYHslcQruZLMYk-16">
          <mxGeometry relative="1" as="geometry" />
        </mxCell>
        <mxCell id="W_ts69IYHslcQruZLMYk-20" style="edgeStyle=orthogonalEdgeStyle;rounded=0;orthogonalLoop=1;jettySize=auto;html=1;entryX=0;entryY=0.5;entryDx=0;entryDy=0;" edge="1" parent="1" source="W_ts69IYHslcQruZLMYk-12" target="W_ts69IYHslcQruZLMYk-15">
          <mxGeometry relative="1" as="geometry" />
        </mxCell>
        <mxCell id="W_ts69IYHslcQruZLMYk-41" style="edgeStyle=orthogonalEdgeStyle;rounded=0;orthogonalLoop=1;jettySize=auto;html=1;entryX=0.5;entryY=0;entryDx=0;entryDy=0;flowAnimation=1;" edge="1" parent="1" source="W_ts69IYHslcQruZLMYk-12" target="W_ts69IYHslcQruZLMYk-40">
          <mxGeometry relative="1" as="geometry" />
        </mxCell>
        <mxCell id="W_ts69IYHslcQruZLMYk-12" value="Producto" style="rounded=1;whiteSpace=wrap;html=1;fillColor=#dae8fc;strokeColor=#6c8ebf;" vertex="1" parent="1">
          <mxGeometry x="600" y="150" width="100" height="40" as="geometry" />
        </mxCell>
        <mxCell id="W_ts69IYHslcQruZLMYk-13" value="codigo" style="ellipse;whiteSpace=wrap;html=1;rounded=1;fillColor=#d5e8d4;strokeColor=#82b366;" vertex="1" parent="1">
          <mxGeometry x="530" y="220" width="70" height="50" as="geometry" />
        </mxCell>
        <mxCell id="W_ts69IYHslcQruZLMYk-14" value="nombre" style="ellipse;whiteSpace=wrap;html=1;rounded=1;fillColor=#d5e8d4;strokeColor=#82b366;" vertex="1" parent="1">
          <mxGeometry x="570" y="290" width="70" height="50" as="geometry" />
        </mxCell>
        <mxCell id="W_ts69IYHslcQruZLMYk-15" value="precio" style="ellipse;whiteSpace=wrap;html=1;rounded=1;fillColor=#d5e8d4;strokeColor=#82b366;" vertex="1" parent="1">
          <mxGeometry x="740" y="230" width="70" height="50" as="geometry" />
        </mxCell>
        <mxCell id="W_ts69IYHslcQruZLMYk-16" value="descripcion" style="ellipse;whiteSpace=wrap;html=1;rounded=1;fillColor=#d5e8d4;strokeColor=#82b366;" vertex="1" parent="1">
          <mxGeometry x="670" y="280" width="70" height="50" as="geometry" />
        </mxCell>
        <mxCell id="W_ts69IYHslcQruZLMYk-21" style="edgeStyle=orthogonalEdgeStyle;rounded=0;orthogonalLoop=1;jettySize=auto;html=1;" edge="1" parent="1" source="W_ts69IYHslcQruZLMYk-25" target="W_ts69IYHslcQruZLMYk-26">
          <mxGeometry relative="1" as="geometry" />
        </mxCell>
        <mxCell id="W_ts69IYHslcQruZLMYk-22" style="edgeStyle=orthogonalEdgeStyle;rounded=0;orthogonalLoop=1;jettySize=auto;html=1;" edge="1" parent="1" source="W_ts69IYHslcQruZLMYk-25" target="W_ts69IYHslcQruZLMYk-27">
          <mxGeometry relative="1" as="geometry" />
        </mxCell>
        <mxCell id="W_ts69IYHslcQruZLMYk-23" style="edgeStyle=orthogonalEdgeStyle;rounded=0;orthogonalLoop=1;jettySize=auto;html=1;exitX=0.5;exitY=1;exitDx=0;exitDy=0;" edge="1" parent="1" source="W_ts69IYHslcQruZLMYk-40" target="W_ts69IYHslcQruZLMYk-29">
          <mxGeometry relative="1" as="geometry" />
        </mxCell>
        <mxCell id="W_ts69IYHslcQruZLMYk-24" style="edgeStyle=orthogonalEdgeStyle;rounded=0;orthogonalLoop=1;jettySize=auto;html=1;entryX=0;entryY=0.5;entryDx=0;entryDy=0;exitX=0.5;exitY=1;exitDx=0;exitDy=0;" edge="1" parent="1" source="W_ts69IYHslcQruZLMYk-40" target="W_ts69IYHslcQruZLMYk-28">
          <mxGeometry relative="1" as="geometry" />
        </mxCell>
        <mxCell id="W_ts69IYHslcQruZLMYk-31" style="edgeStyle=orthogonalEdgeStyle;rounded=0;orthogonalLoop=1;jettySize=auto;html=1;entryX=0;entryY=0.5;entryDx=0;entryDy=0;" edge="1" parent="1" source="W_ts69IYHslcQruZLMYk-25" target="W_ts69IYHslcQruZLMYk-30">
          <mxGeometry relative="1" as="geometry" />
        </mxCell>
        <mxCell id="W_ts69IYHslcQruZLMYk-35" style="edgeStyle=orthogonalEdgeStyle;rounded=0;orthogonalLoop=1;jettySize=auto;html=1;entryX=1;entryY=0.5;entryDx=0;entryDy=0;flowAnimation=1;" edge="1" parent="1" source="W_ts69IYHslcQruZLMYk-25" target="W_ts69IYHslcQruZLMYk-32">
          <mxGeometry relative="1" as="geometry" />
        </mxCell>
        <mxCell id="W_ts69IYHslcQruZLMYk-42" style="edgeStyle=orthogonalEdgeStyle;rounded=0;orthogonalLoop=1;jettySize=auto;html=1;entryX=0;entryY=0.5;entryDx=0;entryDy=0;flowAnimation=1;" edge="1" parent="1" source="W_ts69IYHslcQruZLMYk-25" target="W_ts69IYHslcQruZLMYk-40">
          <mxGeometry relative="1" as="geometry" />
        </mxCell>
        <mxCell id="W_ts69IYHslcQruZLMYk-49" style="edgeStyle=orthogonalEdgeStyle;rounded=0;orthogonalLoop=1;jettySize=auto;html=1;entryX=1;entryY=0.5;entryDx=0;entryDy=0;" edge="1" parent="1" source="W_ts69IYHslcQruZLMYk-25" target="W_ts69IYHslcQruZLMYk-48">
          <mxGeometry relative="1" as="geometry" />
        </mxCell>
        <mxCell id="W_ts69IYHslcQruZLMYk-25" value="Factura" style="rounded=1;whiteSpace=wrap;html=1;fillColor=#dae8fc;strokeColor=#6c8ebf;" vertex="1" parent="1">
          <mxGeometry x="350" y="450" width="100" height="40" as="geometry" />
        </mxCell>
        <mxCell id="W_ts69IYHslcQruZLMYk-26" value="fecha" style="ellipse;whiteSpace=wrap;html=1;rounded=1;fillColor=#d5e8d4;strokeColor=#82b366;" vertex="1" parent="1">
          <mxGeometry x="260" y="525" width="70" height="50" as="geometry" />
        </mxCell>
        <mxCell id="W_ts69IYHslcQruZLMYk-27" value="cliente" style="ellipse;whiteSpace=wrap;html=1;rounded=1;fillColor=#d5e8d4;strokeColor=#82b366;" vertex="1" parent="1">
          <mxGeometry x="350" y="610" width="70" height="50" as="geometry" />
        </mxCell>
        <mxCell id="W_ts69IYHslcQruZLMYk-28" value="cantidad" style="ellipse;whiteSpace=wrap;html=1;rounded=1;fillColor=#d5e8d4;strokeColor=#82b366;" vertex="1" parent="1">
          <mxGeometry x="610" y="370" width="70" height="50" as="geometry" />
        </mxCell>
        <mxCell id="W_ts69IYHslcQruZLMYk-29" value="codigo producto" style="ellipse;whiteSpace=wrap;html=1;rounded=1;fillColor=#d5e8d4;strokeColor=#82b366;" vertex="1" parent="1">
          <mxGeometry x="650" y="450" width="70" height="50" as="geometry" />
        </mxCell>
        <mxCell id="W_ts69IYHslcQruZLMYk-30" value="total pagar" style="ellipse;whiteSpace=wrap;html=1;rounded=1;fillColor=#d5e8d4;strokeColor=#82b366;" vertex="1" parent="1">
          <mxGeometry x="425" y="545" width="70" height="50" as="geometry" />
        </mxCell>
        <mxCell id="W_ts69IYHslcQruZLMYk-32" value="Realiza" style="rhombus;whiteSpace=wrap;html=1;" vertex="1" parent="1">
          <mxGeometry x="240" y="290" width="80" height="80" as="geometry" />
        </mxCell>
        <mxCell id="W_ts69IYHslcQruZLMYk-36" value="1-n" style="text;html=1;align=center;verticalAlign=middle;whiteSpace=wrap;rounded=0;" vertex="1" parent="1">
          <mxGeometry x="210" y="170" width="60" height="30" as="geometry" />
        </mxCell>
        <mxCell id="W_ts69IYHslcQruZLMYk-37" value="1 - 1&lt;div&gt;1 - n&amp;nbsp;&lt;/div&gt;&lt;div&gt;n- n -&amp;gt; n - m&lt;/div&gt;&lt;div&gt;&lt;br&gt;&lt;/div&gt;&lt;div&gt;Nota:&lt;/div&gt;&lt;div&gt;Siempre usa a 1 al inicio, y luego la n; en caso de ser n - n ; convierta a seguna n en m&lt;/div&gt;&lt;div&gt;&lt;br&gt;&lt;/div&gt;&lt;div&gt;Siempre toma la derecha de cada una de las partes.&amp;nbsp;&lt;/div&gt;&lt;div&gt;&lt;br&gt;&lt;/div&gt;&lt;div&gt;N -N; genera una cardinalidad pivote&lt;/div&gt;" style="text;html=1;align=center;verticalAlign=middle;whiteSpace=wrap;rounded=0;" vertex="1" parent="1">
          <mxGeometry x="20" y="630" width="210" height="120" as="geometry" />
        </mxCell>
        <mxCell id="W_ts69IYHslcQruZLMYk-38" value="1-1" style="text;html=1;align=center;verticalAlign=middle;whiteSpace=wrap;rounded=0;" vertex="1" parent="1">
          <mxGeometry x="330" y="425" width="60" height="30" as="geometry" />
        </mxCell>
        <mxCell id="W_ts69IYHslcQruZLMYk-39" value="1 - n" style="text;html=1;align=center;verticalAlign=middle;whiteSpace=wrap;rounded=0;" vertex="1" parent="1">
          <mxGeometry x="190" y="320" width="60" height="30" as="geometry" />
        </mxCell>
        <mxCell id="W_ts69IYHslcQruZLMYk-47" style="edgeStyle=orthogonalEdgeStyle;rounded=0;orthogonalLoop=1;jettySize=auto;html=1;" edge="1" parent="1" source="W_ts69IYHslcQruZLMYk-40" target="W_ts69IYHslcQruZLMYk-46">
          <mxGeometry relative="1" as="geometry" />
        </mxCell>
        <mxCell id="W_ts69IYHslcQruZLMYk-40" value="Tiene" style="rhombus;whiteSpace=wrap;html=1;" vertex="1" parent="1">
          <mxGeometry x="440" y="330" width="80" height="80" as="geometry" />
        </mxCell>
        <mxCell id="W_ts69IYHslcQruZLMYk-43" value="1 -n" style="text;html=1;align=center;verticalAlign=middle;whiteSpace=wrap;rounded=0;" vertex="1" parent="1">
          <mxGeometry x="410" y="425" width="60" height="30" as="geometry" />
        </mxCell>
        <mxCell id="W_ts69IYHslcQruZLMYk-44" value="1-n" style="text;html=1;align=center;verticalAlign=middle;whiteSpace=wrap;rounded=0;" vertex="1" parent="1">
          <mxGeometry x="530" y="140" width="60" height="30" as="geometry" />
        </mxCell>
        <mxCell id="W_ts69IYHslcQruZLMYk-45" value="n m" style="text;html=1;align=center;verticalAlign=middle;whiteSpace=wrap;rounded=0;" vertex="1" parent="1">
          <mxGeometry x="520" y="355" width="60" height="30" as="geometry" />
        </mxCell>
        <mxCell id="W_ts69IYHslcQruZLMYk-46" value="total pagar" style="ellipse;whiteSpace=wrap;html=1;rounded=1;fillColor=#d5e8d4;strokeColor=#82b366;" vertex="1" parent="1">
          <mxGeometry x="515" y="460" width="70" height="50" as="geometry" />
        </mxCell>
        <mxCell id="W_ts69IYHslcQruZLMYk-48" value="codigo" style="ellipse;whiteSpace=wrap;html=1;rounded=1;fillColor=#d5e8d4;strokeColor=#82b366;" vertex="1" parent="1">
          <mxGeometry x="245" y="590" width="70" height="50" as="geometry" />
        </mxCell>
      </root>
    </mxGraphModel>
  </diagram>
</mxfile>
